<?xml version="1.0" standalone="no"?><!DOCTYPE svg PUBLIC "-//W3C//DTD SVG 1.1//EN"
        "http://www.w3.org/Graphics/SVG/1.1/DTD/svg11.dtd">
<svg class="icon" viewBox="0 0 1024 1024" version="1.1" xmlns="http://www.w3.org/2000/svg"
     xmlns:xlink="http://www.w3.org/1999/xlink" width="128" height="128" fill="#0a66c2">
    <path d="M790.528 849.92c-73.728 6.144-149.504 10.24-225.28 10.24s-151.552-4.096-227.328-10.24c-59.392-6.144-106.496-53.248-112.64-112.64-6.144-77.824-10.24-153.6-10.24-229.376 0-73.728 4.096-149.504 10.24-223.232 6.144-59.392 53.248-106.496 112.64-112.64 75.776-6.144 151.552-10.24 227.328-10.24s151.552 4.096 227.328 10.24c59.392 6.144 106.496 53.248 112.64 112.64 2.048 73.728 6.144 149.504 6.144 225.28s-4.096 151.552-10.24 229.376c-4.096 59.392-51.2 106.496-110.592 110.592z"/>

    <g style="transform: translatex(70px)" >
    <path d="M256 256m42.666667 0l0 0q42.666667 0 42.666666 42.666667l0 426.666666q0 42.666667-42.666666 42.666667l0 0q-42.666667 0-42.666667-42.666667l0-426.666666q0-42.666667 42.666667-42.666667Z"
          fill="#000"/>
    <path d="M597.333333 256c95.317333 0 170.666667 83.712 170.666667 184.874667 0 58.026667-24.832 111.914667-66.773333 146.773333l-114.090667 95.018667H725.333333a42.666667 42.666667 0 0 1 42.368 37.674666l0.298667 4.992a42.666667 42.666667 0 0 1-37.674667 42.368l-4.992 0.298667h-244.010666a46.933333 46.933333 0 0 1-30.250667-82.986667l195.584-162.986666c22.272-18.517333 36.010667-48.298667 36.010667-81.152 0-55.893333-39.253333-99.541333-85.333334-99.541334-30.677333 0-59.093333 19.370667-74.24 50.602667l-3.072 6.826667a42.666667 42.666667 0 0 1-79.146666-31.829334c26.709333-66.389333 87.381333-110.933333 156.458666-110.933333z"
          fill="#000"/>
    </g>

    <path d="M870.4 532.48h-20.48c-12.288 0-20.48-8.192-20.48-20.48s8.192-20.48 20.48-20.48h20.48c12.288 0 20.48 8.192 20.48 20.48s-8.192 20.48-20.48 20.48z m-122.88 0h-20.48c-12.288 0-20.48-8.192-20.48-20.48s8.192-20.48 20.48-20.48h20.48c12.288 0 20.48 8.192 20.48 20.48s-8.192 20.48-20.48 20.48z m-122.88 0h-20.48c-12.288 0-20.48-8.192-20.48-20.48s8.192-20.48 20.48-20.48h20.48c12.288 0 20.48 8.192 20.48 20.48s-8.192 20.48-20.48 20.48z m-122.88 0h-20.48c-12.288 0-20.48-8.192-20.48-20.48s8.192-20.48 20.48-20.48h20.48c12.288 0 20.48 8.192 20.48 20.48s-8.192 20.48-20.48 20.48z m-122.88 0h-20.48c-12.288 0-20.48-8.192-20.48-20.48s8.192-20.48 20.48-20.48h20.48c12.288 0 20.48 8.192 20.48 20.48s-8.192 20.48-20.48 20.48z m-122.88 0h-20.48c-12.288 0-20.48-8.192-20.48-20.48s8.192-20.48 20.48-20.48h20.48c12.288 0 20.48 8.192 20.48 20.48s-8.192 20.48-20.48 20.48z"
          fill="#ccc"/>

</svg>
