<?xml version="1.0" standalone="no"?><!DOCTYPE svg PUBLIC "-//W3C//DTD SVG 1.1//EN"
        "http://www.w3.org/Graphics/SVG/1.1/DTD/svg11.dtd">
<svg class="icon" viewBox="0 0 1024 1024" version="1.1" xmlns="http://www.w3.org/2000/svg" fill="#0a66c2"
     xmlns:xlink="http://www.w3.org/1999/xlink" width="200" height="200">
    <path d="M455.36 557.006c4.955 0 9.754-2.582 12.493-7.206l70.267-120.532c9.651-16.761 12.163-36.147 7.19-54.81-4.973-18.618-16.944-34.166-33.66-43.806-33.311-19.23-79.43-6.805-98.607 26.41-1.728 2.992-3.263 6.08-4.52 9.221-2.634-2.093-5.443-3.978-8.48-5.714-33.328-19.23-79.465-6.745-98.642 26.41-9.65 16.664-12.163 36.12-7.172 54.773 4.956 18.654 16.908 34.174 33.59 43.868l120.314 69.433c2.323 1.307 4.783 1.953 7.226 1.953zM322.044 434.301"/>
    <path d="M898.155 287.254c-8.113-14.047-21.218-24.044-36.782-28.233l-97.997-26.27v-31.714c0-33.425-27.204-60.619-60.637-60.619H602.213l-8.061-30.284c-8.499-31.556-42.56-51.361-74.318-42.873l-357.208 95.684c-15.616 4.189-28.651 14.257-36.8 28.303-8.079 14.099-10.26 30.397-6.072 46.006l155.562 580.482c5.584 20.957 21.934 36.732 42.054 42.438l-0.14 0.732 357.207 95.71c5.182 1.448 10.417 2.094 15.722 2.094 10.487 0 20.87-2.74 30.292-8.183 14.048-8.115 24.115-21.167 28.25-36.802l155.545-580.464c4.187-15.6 2.006-31.898-6.09-46.007zM702.74 169.226c17.537 0 31.793 14.308 31.793 31.81v433.201l-124.555-465.01h92.762zM303.13 810.267L147.586 229.76c-2.163-8.114-1.047-16.717 3.246-24.106 4.258-7.39 11.098-12.669 19.229-14.876l357.26-95.702c2.687-0.732 5.426-1.046 8.13-1.046 14.449 0 27.099 9.71 30.815 23.6L721.83 698.137c4.554 16.927-5.549 34.376-22.492 38.948l-357.206 95.693c-16.84 4.5-34.551-5.934-39-22.51z m431.438-61.98v53.761c0 17.572-14.292 31.81-31.83 31.81H449.445l257.31-68.96c11.078-2.93 20.398-8.899 27.814-16.611z m-13.716 158.005c-2.181 8.166-7.416 14.971-14.866 19.299-7.382 4.222-15.984 5.409-24.115 3.227l-246.718-66.133H702.74c11.917 0 22.946-3.56 32.385-9.544l-14.272 53.151z m155.561-580.465L763.376 747.606V262.572l90.51 24.264c8.149 2.198 15.024 7.494 19.282 14.885 4.276 7.337 5.444 15.94 3.245 24.106z m0 0"/>
</svg>